ffmpeg version N-86111-ga441aa90e8-static http://johnvansickle.com/ffmpeg/  Copyright (c) 2000-2017 the FFmpeg developers
  built with gcc 5.4.1 (Debian 5.4.1-8) 20170304
  configuration: --enable-gpl --enable-version3 --enable-static --disable-debug --disable-ffplay --disable-indev=sndio --disable-outdev=sndio --cc=gcc-5 --enable-fontconfig --enable-frei0r --enable-gnutls --enable-gray --enable-libass --enable-libfreetype --enable-libfribidi --enable-libmp3lame --enable-libopencore-amrnb --enable-libopencore-amrwb --enable-libopenjpeg --enable-libopus --enable-librtmp --enable-libsoxr --enable-libspeex --enable-libtheora --enable-libvidstab --enable-libvo-amrwbenc --enable-libvorbis --enable-libvpx --enable-libwebp --enable-libx264 --enable-libx265 --enable-libxvid --enable-libzimg
  libavutil      55. 63.100 / 55. 63.100
  libavcodec     57. 96.101 / 57. 96.101
  libavformat    57. 72.101 / 57. 72.101
  libavdevice    57.  7.100 / 57.  7.100
  libavfilter     6. 89.101 /  6. 89.101
  libswscale      4.  7.101 /  4.  7.101
  libswresample   2.  8.100 /  2.  8.100
  libpostproc    54.  6.100 / 54.  6.100
Input #0, rawvideo, from 'pipe:':
  Duration: N/A, start: 0.000000, bitrate: 552960 kb/s
    Stream #0:0: Video: rawvideo (RGB[24] / 0x18424752), rgb24, 1280x720, 552960 kb/s, 25 tbr, 25 tbn, 25 tbc
Input #1, mp3, from 'demoTEMP_MPY_wvf_snd.mp3':
  Metadata:
    encoder         : Lavf57.72.101
  Duration: 00:01:37.33, start: 0.025057, bitrate: 128 kb/s
    Stream #1:0: Audio: mp3, 44100 Hz, stereo, s16p, 128 kb/s
    Metadata:
      encoder         : Lavc57.96
Stream mapping:
  Stream #0:0 -> #0:0 (rawvideo (native) -> h264 (libx264))
  Stream #1:0 -> #0:1 (copy)
[libx264 @ 0x5628540] using cpu capabilities: MMX2 SSE2Fast SSSE3 SSE4.2 AVX FMA3 AVX2 LZCNT BMI2
[libx264 @ 0x5628540] profile High, level 3.1
[libx264 @ 0x5628540] 264 - core 148 r333 90a61ec - H.264/MPEG-4 AVC codec - Copyleft 2003-2017 - http://www.videolan.org/x264.html - options: cabac=1 ref=3 deblock=1:0:0 analyse=0x3:0x113 me=hex subme=7 psy=1 psy_rd=1.00:0.00 mixed_ref=1 me_range=16 chroma_me=1 trellis=1 8x8dct=1 cqm=0 deadzone=21,11 fast_pskip=1 chroma_qp_offset=-2 threads=6 lookahead_threads=1 sliced_threads=0 nr=0 decimate=1 interlaced=0 bluray_compat=0 constrained_intra=0 bframes=3 b_pyramid=2 b_adapt=1 b_bias=0 direct=1 weightb=1 open_gop=0 weightp=2 keyint=250 keyint_min=25 scenecut=40 intra_refresh=0 rc_lookahead=40 rc=crf mbtree=1 crf=23.0 qcomp=0.60 qpmin=0 qpmax=69 qpstep=4 ip_ratio=1.40 aq=1:1.00
Output #0, mp4, to '/home/bharat/Downloads/videoEditor/videos/demo.mp4':
  Metadata:
    encoder         : Lavf57.72.101
    Stream #0:0: Video: h264 (libx264) ([33][0][0][0] / 0x0021), yuv420p, 1280x720, q=-1--1, 25 fps, 12800 tbn, 25 tbc
    Metadata:
      encoder         : Lavc57.96.101 libx264
    Side data:
      cpb: bitrate max/min/avg: 0/0/0 buffer size: 0 vbv_delay: -1
    Stream #0:1: Audio: mp3 (i[0][0][0] / 0x0069), 44100 Hz, stereo, s16p, 128 kb/s
    Metadata:
      encoder         : Lavc57.96
[rawvideo @ 0x55ff0e0] Thread message queue blocking; consider raising the thread_queue_size option (current value: 8)
frame=   69 fps=0.0 q=28.0 size=      86kB time=00:00:00.65 bitrate=1075.2kbits/s speed=1.31x    frame=  127 fps=126 q=28.0 size=     126kB time=00:00:02.96 bitrate= 348.5kbits/s speed=2.93x    frame=  170 fps=113 q=28.0 size=     281kB time=00:00:04.68 bitrate= 492.4kbits/s speed= 3.1x    frame=  199 fps= 98 q=28.0 size=     485kB time=00:00:05.84 bitrate= 680.7kbits/s speed=2.88x    frame=  231 fps= 91 q=28.0 size=     685kB time=00:00:07.12 bitrate= 788.0kbits/s speed=2.79x    frame=  259 fps= 85 q=28.0 size=     868kB time=00:00:08.24 bitrate= 862.5kbits/s speed= 2.7x    frame=  284 fps= 80 q=28.0 size=     982kB time=00:00:09.24 bitrate= 869.8kbits/s speed= 2.6x    frame=  310 fps= 76 q=28.0 size=    1174kB time=00:00:10.28 bitrate= 935.3kbits/s speed=2.53x    frame=  329 fps= 72 q=28.0 size=    1294kB time=00:00:11.05 bitrate= 959.2kbits/s speed=2.42x    frame=  350 fps= 68 q=28.0 size=    1417kB time=00:00:11.88 bitrate= 976.4kbits/s speed=2.33x    frame=  369 fps= 66 q=28.0 size=    1528kB time=00:00:12.64 bitrate= 989.9kbits/s speed=2.25x    frame=  390 fps= 63 q=28.0 size=    1636kB time=00:00:13.48 bitrate= 994.4kbits/s speed=2.19x    frame=  411 fps= 62 q=28.0 size=    1749kB time=00:00:14.32 bitrate=1000.6kbits/s speed=2.15x    frame=  433 fps= 60 q=28.0 size=    1900kB time=00:00:15.20 bitrate=1023.6kbits/s speed=2.09x    frame=  455 fps= 59 q=28.0 size=    2009kB time=00:00:16.08 bitrate=1023.4kbits/s speed=2.07x    frame=  477 fps= 58 q=28.0 size=    2124kB time=00:00:16.96 bitrate=1026.1kbits/s speed=2.04x    frame=  498 fps= 56 q=28.0 size=    2217kB time=00:00:17.80 bitrate=1020.5kbits/s speed=2.02x    frame=  521 fps= 56 q=28.0 size=    2336kB time=00:00:18.73 bitrate=1021.5kbits/s speed=2.01x    frame=  541 fps= 55 q=28.0 size=    2493kB time=00:00:19.52 bitrate=1046.0kbits/s speed=1.98x    frame=  562 fps= 54 q=28.0 size=    2599kB time=00:00:20.36 bitrate=1045.6kbits/s speed=1.95x    frame=  583 fps= 53 q=28.0 size=    2736kB time=00:00:21.20 bitrate=1057.1kbits/s speed=1.93x    frame=  603 fps= 53 q=28.0 size=    2842kB time=00:00:22.00 bitrate=1058.4kbits/s speed=1.92x    frame=  622 fps= 52 q=28.0 size=    2937kB time=00:00:22.76 bitrate=1057.3kbits/s speed= 1.9x    frame=  645 fps= 51 q=28.0 size=    3060kB time=00:00:23.68 bitrate=1058.6kbits/s speed=1.89x    frame=  666 fps= 51 q=28.0 size=    3199kB time=00:00:24.53 bitrate=1068.2kbits/s speed=1.88x    frame=  688 fps= 51 q=28.0 size=    3295kB time=00:00:25.40 bitrate=1062.6kbits/s speed=1.87x    frame=  710 fps= 50 q=28.0 size=    3442kB time=00:00:26.28 bitrate=1073.0kbits/s speed=1.86x    frame=  730 fps= 50 q=28.0 size=    3549kB time=00:00:27.09 bitrate=1073.3kbits/s speed=1.85x    frame=  751 fps= 50 q=28.0 size=    3655kB time=00:00:27.92 bitrate=1072.3kbits/s speed=1.84x    frame=  773 fps= 49 q=28.0 size=    3759kB time=00:00:28.80 bitrate=1069.1kbits/s speed=1.83x    frame=  797 fps= 49 q=28.0 size=    3940kB time=00:00:29.76 bitrate=1084.4kbits/s speed=1.83x    frame=  817 fps= 49 q=28.0 size=    4088kB time=00:00:30.56 bitrate=1095.7kbits/s speed=1.82x    frame=  840 fps= 49 q=28.0 size=    4201kB time=00:00:31.48 bitrate=1093.2kbits/s speed=1.82x    frame=  858 fps= 48 q=28.0 size=    4301kB time=00:00:32.21 bitrate=1094.0kbits/s speed=1.81x    frame=  880 fps= 48 q=28.0 size=    4428kB time=00:00:33.08 bitrate=1096.6kbits/s speed= 1.8x    frame=  900 fps= 48 q=28.0 size=    4524kB time=00:00:33.88 bitrate=1093.9kbits/s speed= 1.8x    frame=  921 fps= 48 q=28.0 size=    4645kB time=00:00:34.72 bitrate=1095.9kbits/s speed= 1.8x    frame=  942 fps= 47 q=28.0 size=    4759kB time=00:00:35.56 bitrate=1096.3kbits/s speed=1.79x    frame=  960 fps= 47 q=28.0 size=    4887kB time=00:00:36.28 bitrate=1103.3kbits/s speed=1.78x    frame=  984 fps= 47 q=28.0 size=    5007kB time=00:00:37.25 bitrate=1101.2kbits/s speed=1.78x    frame= 1007 fps= 47 q=28.0 size=    5114kB time=00:00:38.16 bitrate=1097.7kbits/s speed=1.78x    frame= 1029 fps= 47 q=28.0 size=    5217kB time=00:00:39.04 bitrate=1094.7kbits/s speed=1.77x    frame= 1051 fps= 47 q=28.0 size=    5395kB time=00:00:39.92 bitrate=1107.1kbits/s speed=1.77x    frame= 1070 fps= 46 q=28.0 size=    5520kB time=00:00:40.68 bitrate=1111.6kbits/s speed=1.76x    frame= 1091 fps= 46 q=28.0 size=    5649kB time=00:00:41.52 bitrate=1114.7kbits/s speed=1.76x    frame= 1111 fps= 46 q=28.0 size=    5760kB time=00:00:42.32 bitrate=1114.9kbits/s speed=1.76x    frame= 1130 fps= 46 q=28.0 size=    5878kB time=00:00:43.08 bitrate=1117.7kbits/s speed=1.75x    frame= 1151 fps= 46 q=28.0 size=    5978kB time=00:00:43.92 bitrate=1115.0kbits/s speed=1.74x    frame= 1175 fps= 46 q=28.0 size=    6098kB time=00:00:44.88 bitrate=1113.0kbits/s speed=1.74x    frame= 1196 fps= 46 q=28.0 size=    6230kB time=00:00:45.72 bitrate=1116.2kbits/s speed=1.74x    frame= 1211 fps= 45 q=28.0 size=    6320kB time=00:00:46.32 bitrate=1117.8kbits/s speed=1.73x    frame= 1233 fps= 45 q=28.0 size=    6442kB time=00:00:47.20 bitrate=1118.0kbits/s speed=1.73x    frame= 1256 fps= 45 q=28.0 size=    6559kB time=00:00:48.12 bitrate=1116.6kbits/s speed=1.72x    frame= 1278 fps= 45 q=28.0 size=    6676kB time=00:00:49.00 bitrate=1115.9kbits/s speed=1.72x    frame= 1295 fps= 45 q=28.0 size=    6824kB time=00:00:49.68 bitrate=1125.1kbits/s speed=1.72x    frame= 1314 fps= 45 q=28.0 size=    6927kB time=00:00:50.44 bitrate=1125.0kbits/s speed=1.71x    frame= 1333 fps= 44 q=28.0 size=    7035kB time=00:00:51.20 bitrate=1125.5kbits/s speed=1.71x    frame= 1353 fps= 44 q=28.0 size=    7169kB time=00:00:52.01 bitrate=1129.2kbits/s speed= 1.7x    frame= 1371 fps= 44 q=28.0 size=    7287kB time=00:00:52.72 bitrate=1132.4kbits/s speed= 1.7x    frame= 1393 fps= 44 q=28.0 size=    7433kB time=00:00:53.60 bitrate=1136.0kbits/s speed= 1.7x    frame= 1413 fps= 44 q=28.0 size=    7539kB time=00:00:54.40 bitrate=1135.4kbits/s speed=1.69x    frame= 1435 fps= 44 q=28.0 size=    7646kB time=00:00:55.28 bitrate=1133.0kbits/s speed=1.69x    frame= 1466 fps= 44 q=28.0 size=    7873kB time=00:00:56.53 bitrate=1140.8kbits/s speed=1.71x    frame= 1493 fps= 44 q=28.0 size=    8057kB time=00:00:57.60 bitrate=1145.8kbits/s speed=1.71x    frame= 1514 fps= 44 q=28.0 size=    8186kB time=00:00:58.44 bitrate=1147.5kbits/s speed=1.71x    frame= 1535 fps= 44 q=28.0 size=    8309kB time=00:00:59.28 bitrate=1148.3kbits/s speed=1.71x    frame= 1561 fps= 44 q=28.0 size=    8468kB time=00:01:00.32 bitrate=1150.0kbits/s speed=1.71x    frame= 1587 fps= 44 q=28.0 size=    8609kB time=00:01:01.36 bitrate=1149.4kbits/s speed=1.72x    frame= 1609 fps= 44 q=28.0 size=    8799kB time=00:01:02.25 bitrate=1158.0kbits/s speed=1.72x    frame= 1632 fps= 44 q=28.0 size=    8913kB time=00:01:03.16 bitrate=1155.9kbits/s speed=1.72x    frame= 1655 fps= 44 q=28.0 size=    9128kB time=00:01:04.08 bitrate=1167.0kbits/s speed=1.72x    frame= 1675 fps= 44 q=28.0 size=    9288kB time=00:01:04.88 bitrate=1172.6kbits/s speed=1.72x    frame= 1697 fps= 44 q=28.0 size=    9428kB time=00:01:05.76 bitrate=1174.5kbits/s speed=1.72x    frame= 1717 fps= 44 q=28.0 size=    9547kB time=00:01:06.56 bitrate=1175.0kbits/s speed=1.72x    frame= 1738 fps= 44 q=28.0 size=    9709kB time=00:01:07.40 bitrate=1180.1kbits/s speed=1.71x    frame= 1758 fps= 44 q=28.0 size=    9825kB time=00:01:08.20 bitrate=1180.1kbits/s speed=1.71x    frame= 1779 fps= 44 q=28.0 size=    9934kB time=00:01:09.04 bitrate=1178.7kbits/s speed=1.71x    frame= 1799 fps= 44 q=28.0 size=   10038kB time=00:01:09.84 bitrate=1177.4kbits/s speed=1.71x    frame= 1819 fps= 44 q=28.0 size=   10149kB time=00:01:10.64 bitrate=1177.0kbits/s speed=1.71x    frame= 1839 fps= 44 q=28.0 size=   10263kB time=00:01:11.44 bitrate=1176.7kbits/s speed=1.71x    frame= 1857 fps= 44 q=28.0 size=   10370kB time=00:01:12.16 bitrate=1177.3kbits/s speed= 1.7x    frame= 1880 fps= 44 q=25.0 size=   10500kB time=00:01:13.09 bitrate=1176.8kbits/s speed= 1.7x    frame= 1903 fps= 44 q=28.0 size=   10670kB time=00:01:14.00 bitrate=1181.1kbits/s speed= 1.7x    frame= 1923 fps= 44 q=28.0 size=   10773kB time=00:01:14.80 bitrate=1179.9kbits/s speed= 1.7x    frame= 1946 fps= 44 q=28.0 size=   10884kB time=00:01:15.73 bitrate=1177.3kbits/s speed= 1.7x    frame= 1970 fps= 44 q=28.0 size=   10987kB time=00:01:16.68 bitrate=1173.8kbits/s speed= 1.7x    frame= 1992 fps= 44 q=25.0 size=   11114kB time=00:01:17.58 bitrate=1173.5kbits/s speed= 1.7x    frame= 2018 fps= 44 q=28.0 size=   11286kB time=00:01:18.60 bitrate=1176.2kbits/s speed= 1.7x    frame= 2042 fps= 44 q=28.0 size=   11478kB time=00:01:19.57 bitrate=1181.7kbits/s speed=1.71x    frame= 2063 fps= 44 q=28.0 size=   11657kB time=00:01:20.40 bitrate=1187.7kbits/s speed= 1.7x    frame= 2084 fps= 44 q=28.0 size=   11871kB time=00:01:21.24 bitrate=1197.1kbits/s speed= 1.7x    frame= 2102 fps= 44 q=28.0 size=   12055kB time=00:01:21.96 bitrate=1204.9kbits/s speed= 1.7x    frame= 2120 fps= 43 q=28.0 size=   12235kB time=00:01:22.68 bitrate=1212.3kbits/s speed= 1.7x    frame= 2140 fps= 43 q=28.0 size=   12457kB time=00:01:23.48 bitrate=1222.3kbits/s speed=1.69x    frame= 2161 fps= 43 q=28.0 size=   12646kB time=00:01:24.32 bitrate=1228.5kbits/s speed=1.69x    frame= 2182 fps= 43 q=28.0 size=   12772kB time=00:01:25.16 bitrate=1228.6kbits/s speed=1.69x    frame= 2200 fps= 43 q=28.0 size=   12915kB time=00:01:25.89 bitrate=1231.8kbits/s speed=1.69x    frame= 2221 fps= 43 q=28.0 size=   13058kB time=00:01:26.72 bitrate=1233.4kbits/s speed=1.69x    frame= 2239 fps= 43 q=28.0 size=   13188kB time=00:01:27.44 bitrate=1235.5kbits/s speed=1.68x    frame= 2256 fps= 43 q=28.0 size=   13337kB time=00:01:28.12 bitrate=1239.9kbits/s speed=1.68x    frame= 2276 fps= 43 q=28.0 size=   13489kB time=00:01:28.92 bitrate=1242.7kbits/s speed=1.68x    frame= 2295 fps= 43 q=28.0 size=   13605kB time=00:01:29.68 bitrate=1242.8kbits/s speed=1.68x    frame= 2317 fps= 43 q=28.0 size=   13775kB time=00:01:30.56 bitrate=1245.9kbits/s speed=1.68x    frame= 2335 fps= 43 q=28.0 size=   13871kB time=00:01:31.28 bitrate=1244.9kbits/s speed=1.67x    frame= 2356 fps= 43 q=28.0 size=   13999kB time=00:01:32.12 bitrate=1244.9kbits/s speed=1.67x    frame= 2375 fps= 43 q=28.0 size=   14112kB time=00:01:32.88 bitrate=1244.7kbits/s speed=1.67x    frame= 2396 fps= 43 q=28.0 size=   14231kB time=00:01:33.72 bitrate=1243.8kbits/s speed=1.67x    frame= 2419 fps= 43 q=28.0 size=   14346kB time=00:01:34.64 bitrate=1241.7kbits/s speed=1.67x    frame= 2433 fps= 42 q=-1.0 Lsize=   14729kB time=00:01:37.28 bitrate=1240.4kbits/s speed=1.69x    
video:13120kB audio:1521kB subtitle:0kB other streams:0kB global headers:0kB muxing overhead: 0.607536%
[libx264 @ 0x5628540] frame I:14    Avg QP:17.50  size: 61757
[libx264 @ 0x5628540] frame P:679   Avg QP:20.92  size: 12805
[libx264 @ 0x5628540] frame B:1740  Avg QP:25.35  size:  2227
[libx264 @ 0x5628540] consecutive B-frames:  1.0%  5.0% 17.9% 76.1%
[libx264 @ 0x5628540] mb I  I16..4: 13.0% 58.4% 28.6%
[libx264 @ 0x5628540] mb P  I16..4:  2.3%  4.5%  1.0%  P16..4: 44.7% 11.7%  5.8%  0.0%  0.0%    skip:29.9%
[libx264 @ 0x5628540] mb B  I16..4:  0.2%  0.2%  0.0%  B16..8: 36.2%  1.0%  0.2%  direct: 0.7%  skip:61.4%  L0:42.7% L1:55.6% BI: 1.7%
[libx264 @ 0x5628540] 8x8 transform intra:56.5% inter:75.3%
[libx264 @ 0x5628540] coded y,uvDC,uvAC intra: 39.7% 52.2% 14.3% inter: 7.4% 8.7% 0.1%
[libx264 @ 0x5628540] i16 v,h,dc,p: 43% 31% 11% 15%
[libx264 @ 0x5628540] i8 v,h,dc,ddl,ddr,vr,hd,vl,hu: 32% 19% 27%  3%  3%  4%  4%  3%  5%
[libx264 @ 0x5628540] i4 v,h,dc,ddl,ddr,vr,hd,vl,hu: 29% 24% 14%  4%  6%  7%  6%  4%  5%
[libx264 @ 0x5628540] i8c dc,h,v,p: 47% 29% 18%  6%
[libx264 @ 0x5628540] Weighted P-Frames: Y:1.5% UV:0.3%
[libx264 @ 0x5628540] ref P L0: 67.2% 11.0% 17.5%  4.2%  0.0%
[libx264 @ 0x5628540] ref B L0: 90.3%  8.4%  1.2%
[libx264 @ 0x5628540] ref B L1: 96.3%  3.7%
[libx264 @ 0x5628540] kb/s:1104.31
